<svg width="18" height="19" viewBox="0 0 18 19" fill="none" xmlns="http://www.w3.org/2000/svg">
<path d="M4.05 3C4.64674 3 5.21903 3.23047 5.64099 3.6407C6.06295 4.05094 6.3 4.60734 6.3 5.1875C6.3 5.76766 6.06295 6.32406 5.64099 6.7343C5.21903 7.14453 4.64674 7.375 4.05 7.375C3.45326 7.375 2.88097 7.14453 2.45901 6.7343C2.03705 6.32406 1.8 5.76766 1.8 5.1875C1.8 4.60734 2.03705 4.05094 2.45901 3.6407C2.88097 3.23047 3.45326 3 4.05 3ZM14.4 3C14.9967 3 15.569 3.23047 15.991 3.6407C16.4129 4.05094 16.65 4.60734 16.65 5.1875C16.65 5.76766 16.4129 6.32406 15.991 6.7343C15.569 7.14453 14.9967 7.375 14.4 7.375C13.8033 7.375 13.231 7.14453 12.809 6.7343C12.3871 6.32406 12.15 5.76766 12.15 5.1875C12.15 4.60734 12.3871 4.05094 12.809 3.6407C13.231 3.23047 13.8033 3 14.4 3ZM0 11.1676C0 9.55703 1.34437 8.25 3.00094 8.25H4.20187C4.64906 8.25 5.07375 8.3457 5.45625 8.51523C5.41969 8.71211 5.40281 8.91719 5.40281 9.125C5.40281 10.1695 5.87531 11.1074 6.62062 11.75C6.615 11.75 6.60937 11.75 6.60094 11.75H0.599062C0.27 11.75 0 11.4875 0 11.1676ZM11.3991 11.75C11.3934 11.75 11.3878 11.75 11.3794 11.75C12.1275 11.1074 12.5972 10.1695 12.5972 9.125C12.5972 8.91719 12.5775 8.71484 12.5437 8.51523C12.9262 8.34297 13.3509 8.25 13.7981 8.25H14.9991C16.6556 8.25 18 9.55703 18 11.1676C18 11.4902 17.73 11.75 17.4009 11.75H11.4019H11.3991ZM6.3 9.125C6.3 8.42881 6.58446 7.76113 7.09081 7.26884C7.59716 6.77656 8.28392 6.5 9 6.5C9.71608 6.5 10.4028 6.77656 10.9092 7.26884C11.4155 7.76113 11.7 8.42881 11.7 9.125C11.7 9.82119 11.4155 10.4889 10.9092 10.9812C10.4028 11.4734 9.71608 11.75 9 11.75C8.28392 11.75 7.59716 11.4734 7.09081 10.9812C6.58446 10.4889 6.3 9.82119 6.3 9.125ZM3.6 16.2699C3.6 14.2574 5.27906 12.625 7.34906 12.625H10.6481C12.7209 12.625 14.4 14.2574 14.4 16.2699C14.4 16.6719 14.0653 17 13.6491 17H4.34813C3.93469 17 3.59719 16.6746 3.59719 16.2699H3.6Z" fill="#021729"/>
</svg>
