<svg width="12" height="14" viewBox="0 0 12 14" fill="none" xmlns="http://www.w3.org/2000/svg">
<g clip-path="url(#clip0_17_38)">
<path d="M5.29358 13.7063C5.6842 14.0969 6.31858 14.0969 6.7092 13.7063L11.7092 8.70625C12.0998 8.31563 12.0998 7.68125 11.7092 7.29062C11.3186 6.9 10.6842 6.9 10.2936 7.29062L6.99983 10.5875V1C6.99983 0.446875 6.55295 0 5.99983 0C5.4467 0 4.99983 0.446875 4.99983 1V10.5844L1.70608 7.29375C1.31545 6.90312 0.681076 6.90312 0.290451 7.29375C-0.100174 7.68437 -0.100174 8.31875 0.290451 8.70938L5.29045 13.7094L5.29358 13.7063Z" fill="#1DCAD3"/>
</g>
<defs>
<clipPath id="clip0_17_38">
<rect width="12" height="14" fill="white"/>
</clipPath>
</defs>
</svg>
