<svg width="14" height="12" viewBox="0 0 14 12" fill="none" xmlns="http://www.w3.org/2000/svg">
<g clip-path="url(#clip0_17_88)">
<path d="M13.7062 6.70647C14.0969 6.31584 14.0969 5.68147 13.7062 5.29084L8.70625 0.290845C8.31562 -0.0997804 7.68125 -0.0997804 7.29062 0.290845C6.9 0.68147 6.9 1.31585 7.29062 1.70647L10.5875 5.00022L1 5.00022C0.446875 5.00022 -2.86549e-07 5.4471 -2.62371e-07 6.00022C-2.38193e-07 6.55335 0.446875 7.00022 1 7.00022L10.5844 7.00022L7.29375 10.294C6.90312 10.6846 6.90312 11.319 7.29375 11.7096C7.68437 12.1002 8.31875 12.1002 8.70938 11.7096L13.7094 6.70959L13.7062 6.70647Z" fill="#032038"/>
</g>
<defs>
<clipPath id="clip0_17_88">
<rect width="12" height="14" fill="white" transform="translate(0 12) rotate(-90)"/>
</clipPath>
</defs>
</svg>
