<svg width="16" height="16" viewBox="0 0 16 16" fill="none" xmlns="http://www.w3.org/2000/svg">
<path d="M9.2823 0C9.52783 0.0933731 9.79325 0.153622 10.0151 0.286536C10.6124 0.644362 10.915 1.1916 10.9386 1.88896C10.9437 2.03946 10.9394 2.19029 10.9394 2.36458C11.0096 2.36458 11.0701 2.36458 11.1306 2.36458C11.917 2.36466 12.7035 2.36124 13.4898 2.36628C13.9256 2.36908 14.2124 2.71069 14.129 3.11577C14.0862 3.32377 13.9657 3.48047 13.7686 3.55484C13.6578 3.59668 13.6374 3.65522 13.6375 3.76071C13.6401 5.92184 13.6398 8.08292 13.6385 10.244C13.6384 10.3476 13.6384 10.4549 13.6131 10.5539C13.5401 10.8393 13.2655 11.0217 12.961 11.0012C12.6809 10.9824 12.4431 10.7622 12.4025 10.4781C12.3908 10.3961 12.3899 10.3121 12.3899 10.229C12.3892 8.09908 12.3894 5.96925 12.3894 3.83938C12.3894 3.77251 12.3894 3.70563 12.3894 3.62672C9.46321 3.62672 6.55006 3.62672 3.62041 3.62672C3.61775 3.6823 3.61283 3.73738 3.61283 3.79251C3.61246 6.99511 3.61196 10.1977 3.61287 13.4003C3.61312 14.2366 4.13115 14.7496 4.97068 14.7497C7.01226 14.7498 9.05384 14.7506 11.0954 14.7492C11.7315 14.7488 12.232 14.3552 12.3617 13.7555C12.3835 13.6544 12.3829 13.5486 12.3959 13.4455C12.4395 13.1028 12.7207 12.8595 13.0476 12.8802C13.3947 12.9021 13.6404 13.1774 13.6374 13.5409C13.6282 14.6329 12.8748 15.6118 11.8157 15.905C11.6812 15.9422 11.5437 15.9684 11.4075 15.9998C9.13647 15.9998 6.86543 15.9998 4.59435 15.9998C4.56506 15.9905 4.53635 15.9772 4.50631 15.9726C3.84216 15.8725 3.30246 15.5568 2.88851 15.0303C2.51335 14.5531 2.35969 14.0053 2.36044 13.4009C2.36456 10.2032 2.36182 7.00548 2.36427 3.80776C2.36436 3.67913 2.35277 3.5918 2.20603 3.53905C2.0257 3.47426 1.91812 3.32014 1.87508 3.13144C1.78145 2.72128 2.06986 2.36924 2.51165 2.36633C3.29813 2.36116 4.08461 2.3647 4.87114 2.36462C4.93168 2.36462 4.99222 2.36462 5.04659 2.36462C5.05526 2.33099 5.06005 2.32091 5.06013 2.31083C5.06118 2.18062 5.05988 2.05042 5.06234 1.92025C5.07588 1.20239 5.38538 0.644279 6.00041 0.278953C6.21844 0.149456 6.47865 0.0909568 6.7196 4.19608e-05C7.57379 2.94995e-07 8.42802 0 9.2823 0ZM6.31486 2.35379C7.44779 2.35379 8.5634 2.35379 9.68571 2.35379C9.68571 2.172 9.69871 1.99967 9.68287 1.83C9.65358 1.51597 9.38201 1.25743 9.06414 1.25368C8.35669 1.24531 7.64904 1.24556 6.9416 1.25343C6.61694 1.25702 6.34207 1.52222 6.31715 1.84125C6.30423 2.00633 6.31486 2.17325 6.31486 2.35379Z" fill="#D55051"/>
<path d="M7.3761 9.17051C7.3761 8.30099 7.37476 7.43146 7.37685 6.56194C7.37755 6.27815 7.53772 6.05441 7.79371 5.96299C8.03533 5.87674 8.32008 5.93845 8.46907 6.14849C8.55141 6.26457 8.61861 6.42165 8.61941 6.56069C8.62936 8.30486 8.62703 10.0492 8.62507 11.7934C8.62465 12.1619 8.35316 12.4365 8.0015 12.4369C7.65042 12.4373 7.37793 12.1618 7.37685 11.7947C7.37435 10.92 7.37605 10.0452 7.3761 9.17051Z" fill="#D55051"/>
<path d="M11.0143 9.18057C11.0142 10.0396 11.0156 10.8986 11.0135 11.7576C11.0127 12.1034 10.8465 12.3327 10.5486 12.4141C10.1986 12.5097 9.83726 12.2799 9.77872 11.9224C9.76868 11.8611 9.76484 11.7981 9.7648 11.7359C9.76409 10.0335 9.76484 8.33109 9.76343 6.62871C9.76326 6.42209 9.80739 6.23455 9.96709 6.09247C10.1648 5.91656 10.3949 5.87756 10.6356 5.97881C10.8781 6.08085 11.0084 6.27672 11.0114 6.54109C11.0169 7.04599 11.0139 7.55103 11.0142 8.05601C11.0145 8.43088 11.0143 8.80571 11.0143 9.18057Z" fill="#D55051"/>
<path d="M4.98784 9.17061C4.98801 8.30642 4.98392 7.44219 4.98959 6.578C4.99272 6.10234 5.42729 5.79922 5.8467 5.97272C6.05928 6.06068 6.1884 6.22222 6.22457 6.45175C6.23423 6.51313 6.23723 6.57608 6.23723 6.63833C6.2379 8.33551 6.23827 10.0327 6.23736 11.7298C6.23715 12.1025 6.06607 12.3419 5.75149 12.4196C5.40262 12.5059 5.03934 12.2604 4.99826 11.9031C4.98347 11.7745 4.98821 11.6433 4.98809 11.5133C4.9873 10.7324 4.98767 9.95152 4.98784 9.17061Z" fill="#D55051"/>
</svg>
