<svg width="512" height="512" viewBox="0 0 512 512" fill="none" xmlns="http://www.w3.org/2000/svg">
<g clip-path="url(#clip0_154_10)">
<path d="M134.39 -0.54939C136.28 -0.558108 138.169 -0.568481 140.058 -0.580366C145.138 -0.606902 150.218 -0.608332 155.298 -0.603239C159.553 -0.601085 163.808 -0.6109 168.063 -0.62045C178.099 -0.64255 188.135 -0.643562 198.171 -0.631421C208.506 -0.619311 218.841 -0.644061 229.176 -0.686562C238.078 -0.721813 246.979 -0.733794 255.881 -0.727286C261.185 -0.723667 266.49 -0.728865 271.795 -0.756715C276.777 -0.7819 281.758 -0.777959 286.739 -0.751893C288.563 -0.747171 290.386 -0.752599 292.209 -0.76914C309.861 -0.917695 309.861 -0.917696 317 5.99993C318.017 6.94563 319.033 7.89122 320.05 8.83673C323.841 12.4217 327.515 16.12 331.193 19.8205C332.607 21.2326 334.023 22.644 335.438 24.0549C339.263 27.8702 343.078 31.6948 346.892 35.5214C350.889 39.5304 354.895 43.5316 358.899 47.534C365.617 54.2512 372.329 60.9744 379.038 67.7013C386.793 75.4774 394.556 83.2445 402.325 91.0069C409.805 98.4815 417.28 105.962 424.752 113.445C427.929 116.627 431.109 119.808 434.29 122.986C438.032 126.727 441.77 130.473 445.504 134.222C446.874 135.597 448.247 136.971 449.622 138.343C451.497 140.215 453.366 142.093 455.233 143.972C455.778 144.514 456.324 145.056 456.886 145.614C463.471 152.275 465.117 157.006 465.147 166.185C465.151 166.909 465.155 167.634 465.158 168.381C465.169 170.809 465.173 173.238 465.177 175.667C465.183 177.408 465.19 179.149 465.197 180.891C465.218 186.609 465.228 192.328 465.238 198.047C465.242 200.017 465.247 201.986 465.251 203.956C465.27 213.211 465.284 222.465 465.292 231.719C465.302 242.397 465.328 253.074 465.369 263.752C465.399 272.009 465.414 280.265 465.417 288.522C465.419 293.452 465.428 298.382 465.454 303.311C465.477 307.951 465.481 312.59 465.471 317.229C465.47 318.928 465.477 320.628 465.49 322.327C465.627 340.209 465.627 340.209 459.553 346.499C453.635 351.744 449.024 352.505 441.27 352.383C435.226 351.675 431.759 348.805 427.625 344.562C424.54 339.698 423.75 335.207 423.76 329.508C423.755 327.577 423.755 327.577 423.751 325.607C423.758 324.193 423.766 322.78 423.773 321.366C423.774 319.867 423.773 318.369 423.772 316.87C423.772 312.813 423.783 308.756 423.797 304.698C423.81 300.454 423.811 296.21 423.813 291.966C423.82 283.934 423.836 275.902 423.856 267.87C423.878 258.723 423.889 249.577 423.899 240.431C423.92 221.62 423.955 202.81 424 184C423.131 184.007 422.263 184.013 421.368 184.02C413.117 184.081 404.866 184.126 396.614 184.155C392.374 184.171 388.134 184.192 383.893 184.226C379.789 184.259 375.685 184.277 371.58 184.285C370.027 184.29 368.473 184.301 366.92 184.317C353.76 184.45 340.787 183.449 328.688 177.75C328.022 177.446 327.357 177.142 326.671 176.83C320.98 174.15 315.889 170.972 311 167C310.171 166.333 309.342 165.667 308.488 164.98C293.329 152.096 282.766 133.788 280.784 113.824C280.468 108.488 280.538 103.155 280.609 97.8124C280.617 96.1314 280.623 94.4503 280.627 92.7692C280.642 88.4027 280.681 84.0368 280.725 79.6706C280.767 75.1919 280.785 70.7131 280.805 66.2343C280.847 57.4893 280.915 48.7447 281 39.9999C261.128 40.084 241.256 40.1792 221.384 40.2875C212.157 40.3375 202.929 40.3839 193.701 40.4218C185.654 40.4548 177.607 40.4947 169.56 40.5427C165.303 40.5679 161.046 40.5897 156.789 40.6033C152.774 40.6162 148.758 40.6384 144.743 40.6673C143.278 40.6763 141.812 40.6821 140.346 40.6841C124.108 40.5285 124.108 40.5286 109.063 45.8749C108.208 46.3673 107.353 46.8598 106.473 47.3671C101.798 50.4543 98.4058 53.3782 95.3751 58.1249C94.8053 58.9938 94.2355 59.8626 93.6485 60.7577C88.9643 69.9707 88.5677 78.7573 88.6191 88.954C88.6156 90.457 88.6109 91.9599 88.6049 93.4628C88.5925 97.5712 88.5986 101.679 88.6079 105.788C88.6147 110.227 88.6042 114.666 88.5959 119.105C88.5826 127.792 88.5855 136.48 88.5942 145.167C88.601 152.23 88.6019 159.292 88.5986 166.354C88.5982 167.36 88.5977 168.366 88.5972 169.402C88.5963 171.446 88.5953 173.49 88.5943 175.533C88.5857 194.688 88.5956 213.842 88.6117 232.996C88.6251 249.423 88.6228 265.85 88.6089 282.277C88.5929 301.364 88.5866 320.451 88.5958 339.538C88.5967 341.574 88.5977 343.61 88.5986 345.646C88.5991 346.648 88.5995 347.65 88.6 348.682C88.6026 355.734 88.5982 362.785 88.5912 369.837C88.5827 378.433 88.5851 387.03 88.601 395.626C88.6089 400.01 88.612 404.394 88.6021 408.778C88.5931 412.795 88.5981 416.811 88.614 420.828C88.6173 422.278 88.6157 423.727 88.6084 425.176C88.5468 438.413 90.6901 448.446 99.0001 459C101.478 461.393 104.048 463.236 107 465C107.922 465.582 107.922 465.582 108.863 466.176C117.66 471.184 128.278 471.3 138.157 471.254C139.74 471.259 139.74 471.259 141.355 471.263C144.855 471.271 148.355 471.265 151.856 471.259C154.38 471.261 156.904 471.265 159.428 471.269C165.55 471.277 171.673 471.276 177.796 471.271C182.775 471.266 187.755 471.265 192.734 471.268C193.445 471.268 194.156 471.268 194.889 471.268C196.333 471.269 197.778 471.27 199.223 471.27C212.743 471.276 226.263 471.27 239.784 471.259C251.364 471.25 262.944 471.251 274.524 471.261C287.999 471.271 301.474 471.276 314.949 471.269C316.388 471.269 317.827 471.268 319.266 471.268C319.974 471.267 320.682 471.267 321.411 471.267C326.38 471.265 331.349 471.268 336.318 471.273C343.015 471.279 349.713 471.274 356.411 471.263C358.863 471.26 361.316 471.261 363.768 471.265C367.127 471.271 370.485 471.264 373.843 471.254C374.804 471.258 375.765 471.263 376.754 471.267C385.631 471.217 395.156 470.753 402.938 466.125C403.792 465.633 404.647 465.14 405.527 464.633C414.363 458.798 419.809 450.795 422.527 440.539C423.036 437.809 423.258 435.145 423.438 432.375C423.956 425.435 426.133 420.511 431.125 415.625C435.98 411.828 441.287 410.859 447.359 411.09C453.674 412.059 457.847 415.262 462 420C467.424 428.305 465.482 439.331 463.813 448.625C459.179 469.463 446.91 488.175 429 500C426.502 501.505 423.96 502.899 421.375 504.25C420.785 504.567 420.195 504.885 419.587 505.212C403.66 513.095 386.874 512.575 369.551 512.518C366.796 512.521 364.041 512.53 361.287 512.539C354.615 512.556 347.944 512.553 341.272 512.541C335.845 512.532 330.417 512.531 324.99 512.535C324.214 512.536 323.438 512.536 322.639 512.537C321.062 512.538 319.485 512.54 317.908 512.541C303.163 512.552 288.418 512.539 273.673 512.518C261.053 512.5 248.432 512.503 235.812 512.521C221.115 512.543 206.419 512.551 191.722 512.539C190.151 512.538 188.581 512.536 187.01 512.535C186.238 512.535 185.465 512.534 184.669 512.533C179.256 512.53 173.842 512.536 168.428 512.545C161.82 512.556 155.212 512.553 148.604 512.532C145.24 512.522 141.876 512.519 138.512 512.531C121.772 512.581 105.826 512.405 90.6876 504.312C90.0315 503.973 89.3755 503.633 88.6995 503.283C82.489 499.947 77.1818 495.771 72.0001 491C71.0545 490.192 71.0545 490.192 70.0899 489.367C56.2597 476.829 47.9519 456.373 46.6302 438.014C46.4913 433.989 46.4652 429.974 46.4921 425.947C46.4875 424.41 46.4811 422.873 46.4732 421.337C46.4567 417.166 46.4647 412.996 46.4772 408.826C46.4863 404.308 46.4722 399.79 46.4612 395.272C46.4435 386.442 46.4473 377.612 46.4589 368.782C46.468 361.6 46.4691 354.419 46.4648 347.237C46.4642 346.212 46.4636 345.187 46.4629 344.131C46.4617 342.047 46.4604 339.964 46.4591 337.881C46.4477 318.383 46.4607 298.885 46.4823 279.387C46.5001 262.686 46.497 245.985 46.4786 229.284C46.4571 209.852 46.4488 190.42 46.461 170.988C46.4623 168.913 46.4636 166.838 46.4648 164.763C46.4657 163.231 46.4657 163.231 46.4667 161.669C46.4701 154.503 46.4643 147.337 46.4549 140.171C46.4436 131.428 46.4468 122.685 46.468 113.943C46.4785 109.489 46.4827 105.035 46.4694 100.581C46.4574 96.4927 46.4642 92.4046 46.4853 88.316C46.4897 86.8486 46.4876 85.381 46.4778 83.9136C46.3952 70.5282 48.2099 56.5354 54.7501 44.6249C55.0929 43.9727 55.4358 43.3204 55.7891 42.6484C66.0737 23.5806 81.8552 9.71328 102.539 2.82075C113.263 -0.0507648 123.327 -0.583587 134.39 -0.54939ZM322 70.9999C321.875 76.6191 321.785 82.2375 321.725 87.8578C321.7 89.7646 321.666 91.6712 321.623 93.5776C321.315 107.398 322.087 119.01 331.223 130.191C339.721 138.839 350.093 143.093 362.128 143.376C366.504 143.401 370.875 143.334 375.25 143.25C377.074 143.23 378.898 143.212 380.723 143.195C385.149 143.152 389.574 143.083 394 143C389.99 138.194 385.801 133.656 381.368 129.238C380.735 128.603 380.101 127.968 379.449 127.314C377.379 125.239 375.305 123.168 373.231 121.098C371.784 119.65 370.338 118.203 368.891 116.756C365.873 113.736 362.853 110.718 359.831 107.701C355.949 103.825 352.072 99.9441 348.196 96.0621C345.217 93.0793 342.235 90.0989 339.253 87.1192C337.821 85.6881 336.39 84.2563 334.96 82.8237C332.971 80.8319 330.978 78.8434 328.985 76.8556C328.39 76.2588 327.796 75.662 327.183 75.0471C324.954 72.2806 324.954 72.2806 322 70.9999Z" fill="#1DCAD3"/>
<path d="M180 340C189.939 353.125 186 363.049 186 382C232.2 382 278.4 382 326 382C326 372.1 326 362.2 326 352C330.546 340.636 330.546 340.636 337.875 335.75C344.137 333.54 349.876 333.546 356 336C360.87 338.46 363.822 341.472 366.191 346.475C367.877 351.735 367.545 357.223 367.496 362.695C367.498 364.002 367.499 365.308 367.501 366.654C367.502 369.405 367.49 372.157 367.467 374.909C367.438 378.424 367.441 381.938 367.454 385.453C367.462 388.825 367.447 392.198 367.434 395.57C367.437 396.827 367.44 398.083 367.443 399.377C367.43 400.552 367.417 401.727 367.404 402.938C367.399 403.966 367.393 404.995 367.388 406.054C366.665 411.545 364.177 415.308 360 418.812C359.319 419.396 358.639 419.98 357.938 420.582C353.997 423.466 349.98 423.146 345.315 423.14C344.524 423.143 343.734 423.146 342.919 423.149C340.261 423.158 337.604 423.16 334.946 423.161C333.044 423.166 331.142 423.171 329.24 423.176C324.066 423.189 318.893 423.196 313.719 423.2C310.488 423.203 307.257 423.207 304.026 423.212C293.919 423.225 283.813 423.235 273.707 423.239C262.034 423.243 250.362 423.261 238.69 423.29C229.672 423.311 220.653 423.322 211.635 423.323C206.247 423.324 200.859 423.33 195.471 423.348C190.402 423.364 185.334 423.366 180.266 423.358C178.406 423.357 176.546 423.361 174.686 423.371C172.146 423.384 169.606 423.378 167.066 423.367C165.963 423.38 165.963 423.38 164.838 423.392C159.139 423.337 155.101 421.955 150.918 418.062C150.347 417.382 149.776 416.701 149.188 416C148.604 415.319 148.02 414.639 147.418 413.937C144.882 410.472 144.863 407.438 144.823 403.279C144.81 402.103 144.797 400.928 144.784 399.717C144.777 398.446 144.769 397.174 144.762 395.863C144.754 394.555 144.746 393.246 144.737 391.898C144.722 389.125 144.712 386.352 144.705 383.578C144.694 380.042 144.66 376.507 144.62 372.971C144.587 369.581 144.583 366.191 144.574 362.801C144.557 361.539 144.539 360.277 144.521 358.977C144.539 351.829 145.094 347.053 149 341C157.844 332.526 170.618 331.709 180 340Z" fill="#1DCAD3"/>
<path d="M266.375 187.438C270.987 190.36 273.792 194.019 276 199C276.85 204.027 276.841 209.014 276.805 214.098C276.816 215.542 276.83 216.987 276.846 218.431C276.882 222.204 276.883 225.976 276.876 229.75C276.875 233.611 276.908 237.473 276.938 241.334C276.991 248.889 277.008 256.444 277 264C277.527 263.446 278.054 262.893 278.596 262.323C279.299 261.599 280.002 260.875 280.727 260.129C281.418 259.41 282.11 258.692 282.823 257.951C286.905 254.293 291.173 253.094 296.582 252.914C302.823 253.27 306.928 254.885 311.402 259.422C316.227 264.847 317.209 269.177 317.461 276.207C315.945 285.396 309.366 291.241 303.047 297.52C302.062 298.509 301.078 299.5 300.095 300.49C298.04 302.555 295.979 304.613 293.912 306.665C291.276 309.283 288.661 311.922 286.052 314.566C284.027 316.613 281.991 318.647 279.952 320.679C278.983 321.646 278.018 322.618 277.057 323.594C270.662 330.073 265.443 334.875 256 335.375C245.706 334.825 240.152 328.884 233.262 321.891C232.25 320.88 231.237 319.869 230.224 318.86C228.11 316.749 226.006 314.631 223.908 312.505C221.229 309.792 218.53 307.099 215.825 304.412C213.734 302.332 211.652 300.241 209.574 298.148C208.582 297.151 207.589 296.158 206.592 295.167C195.929 284.546 195.929 284.546 194.566 276.41C194.555 269.492 195.867 264.414 200.613 259.242C204.882 255.324 208.66 253.035 214.609 252.973C222.414 253.384 226.692 255.623 232.168 261.145C232.701 261.681 233.233 262.217 233.782 262.769C234.385 263.378 234.385 263.378 235 264C235.004 263.216 235.007 262.432 235.011 261.624C235.049 254.209 235.106 246.795 235.184 239.381C235.223 235.57 235.256 231.759 235.271 227.947C235.286 224.264 235.321 220.582 235.368 216.899C235.383 215.499 235.391 214.099 235.392 212.698C235.411 196.648 235.411 196.648 241.816 190.16C242.681 189.617 242.681 189.617 243.563 189.063C244.431 188.492 244.431 188.492 245.316 187.91C251.395 184.624 260.076 184.757 266.375 187.438Z" fill="#1DCAD3"/>
</g>
<defs>
<clipPath id="clip0_154_10">
<rect width="512" height="512" fill="white"/>
</clipPath>
</defs>
</svg>
