<svg width="15" height="15" viewBox="0 0 15 15" fill="none" xmlns="http://www.w3.org/2000/svg">
<path d="M0 2.14272C0 1.55008 0.478795 1.07129 1.07143 1.07129H13.9286C14.5212 1.07129 15 1.55008 15 2.14272C15 2.73535 14.5212 3.21415 13.9286 3.21415H1.07143C0.478795 3.21415 0 2.73535 0 2.14272ZM0 7.49986C0 6.90723 0.478795 6.42843 1.07143 6.42843H13.9286C14.5212 6.42843 15 6.90723 15 7.49986C15 8.09249 14.5212 8.57129 13.9286 8.57129H1.07143C0.478795 8.57129 0 8.09249 0 7.49986ZM15 12.857C15 13.4496 14.5212 13.9284 13.9286 13.9284H1.07143C0.478795 13.9284 0 13.4496 0 12.857C0 12.2644 0.478795 11.7856 1.07143 11.7856H13.9286C14.5212 11.7856 15 12.2644 15 12.857Z" fill="white"/>
</svg>
