<svg width="18" height="19" viewBox="0 0 18 19" fill="none" xmlns="http://www.w3.org/2000/svg">
<path d="M2.77187 8.51871L0 13.15V4.6248C0 3.54926 0.896875 2.6748 2 2.6748H5.67188C6.20312 2.6748 6.7125 2.87895 7.0875 3.24457L7.91563 4.05199C8.29063 4.41762 8.8 4.62176 9.33125 4.62176L13 4.6248C14.1031 4.6248 15 5.49926 15 6.5748V7.5498H4.5C3.7875 7.5498 3.13125 7.91848 2.77187 8.51871ZM3.63438 9.00926C3.81563 8.70762 4.14375 8.5248 4.5 8.5248H17C17.3594 8.5248 17.6875 8.71066 17.8656 9.01535C18.0438 9.32004 18.0437 9.69176 17.8625 9.9934L14.3625 15.8434C14.1844 16.142 13.8562 16.3248 13.5 16.3248H1C0.640625 16.3248 0.3125 16.1389 0.134375 15.8343C-0.04375 15.5296 -0.04375 15.1579 0.1375 14.8562L3.6375 9.00621L3.63438 9.00926Z" fill="#032038"/>
</svg>
