<svg width="15" height="15" viewBox="0 0 15 15" fill="none" xmlns="http://www.w3.org/2000/svg">
<g clip-path="url(#clip0_214_8)">
<path d="M8.57143 1.55048C8.57143 0.952148 8.09264 0.46875 7.5 0.46875C6.90737 0.46875 6.42857 0.952148 6.42857 1.55048V6.41827H1.60715C1.01451 6.41827 0.535717 6.90167 0.535717 7.5C0.535717 8.09833 1.01451 8.58173 1.60715 8.58173H6.42857V13.4495C6.42857 14.0479 6.90737 14.5312 7.5 14.5312C8.09264 14.5312 8.57143 14.0479 8.57143 13.4495V8.58173H13.3929C13.9855 8.58173 14.4643 8.09833 14.4643 7.5C14.4643 6.90167 13.9855 6.41827 13.3929 6.41827H8.57143V1.55048Z" fill="white"/>
</g>
<defs>
<clipPath id="clip0_214_8">
<rect width="15" height="15" fill="white"/>
</clipPath>
</defs>
</svg>
