<svg width="17" height="16" viewBox="0 0 17 16" fill="none" xmlns="http://www.w3.org/2000/svg">
<g clip-path="url(#clip0_30_671)">
<path d="M9.94592 -0.00744004C9.97108 -0.0077461 9.99623 -0.00805216 10.0221 -0.00836749C11.0287 -0.0180838 11.9574 0.108691 12.8923 0.500006C12.9129 0.508602 12.9335 0.517197 12.9547 0.526053C14.5268 1.19592 15.7653 2.53497 16.4195 4.09946C16.6861 4.76418 16.8633 5.49685 16.8674 6.21534C16.8677 6.24092 16.8679 6.2665 16.8681 6.29286C16.8686 6.37493 16.8688 6.45699 16.8689 6.53907C16.8689 6.58113 16.8689 6.58113 16.869 6.62405C16.8685 7.03744 16.8564 7.43854 16.7673 7.84376C16.762 7.86912 16.7566 7.89448 16.7511 7.92061C16.637 8.44855 16.4642 8.95402 16.2361 9.44337C16.2239 9.46989 16.2117 9.49641 16.1991 9.52374C16.0954 9.73879 15.9687 9.9467 15.7791 10.0957C15.5769 10.1519 15.3633 10.1534 15.1619 10.0938C15.0205 9.98603 14.8868 9.85832 14.8298 9.68751C14.7992 9.40613 14.8549 9.21584 14.988 8.97071C15.5532 7.85982 15.7358 6.5276 15.4236 5.31251C15.4177 5.2888 15.4119 5.26509 15.4059 5.24067C15.3216 4.9055 15.1983 4.59228 15.0486 4.28126C15.0336 4.24962 15.0336 4.24962 15.0184 4.21734C14.6869 3.52485 14.1921 2.90169 13.5798 2.43751C13.5471 2.41113 13.5144 2.38472 13.4817 2.35828C12.7709 1.79654 11.9326 1.49338 11.0486 1.34376C11.0199 1.33829 10.9912 1.33281 10.9616 1.32718C10.8477 1.31056 10.7357 1.30633 10.6208 1.30506C10.598 1.30476 10.5751 1.30445 10.5516 1.30414C10.0382 1.29871 9.5488 1.3081 9.04858 1.43751C9.02492 1.44336 9.00126 1.44921 8.97688 1.45524C8.64165 1.53954 8.32841 1.6628 8.01733 1.81251C7.99624 1.82248 7.97515 1.83246 7.95341 1.84273C7.26093 2.17418 6.63776 2.66897 6.17358 3.28126C6.14721 3.314 6.1208 3.34671 6.09436 3.3794C5.53262 4.09024 5.22946 4.92847 5.07983 5.81251C5.07436 5.84121 5.06889 5.86992 5.06326 5.89949C5.04663 6.01337 5.0424 6.1254 5.04114 6.24024C5.04083 6.26309 5.04053 6.28595 5.04021 6.30949C5.03478 6.82285 5.04418 7.31229 5.17358 7.81251C5.17944 7.83617 5.18529 7.85983 5.19131 7.88421C5.27561 8.21944 5.39888 8.53268 5.54858 8.84376C5.55856 8.86485 5.56853 8.88594 5.57881 8.90768C5.91026 9.60016 6.40505 10.2233 7.01733 10.6875C7.05008 10.7139 7.08279 10.7403 7.11548 10.7667C7.82631 11.3285 8.66455 11.6316 9.54858 11.7813C9.57736 11.7867 9.60614 11.7922 9.63579 11.7979C10.2003 11.8801 10.87 11.8542 11.4236 11.7188C11.449 11.7127 11.4745 11.7067 11.5007 11.7004C11.9782 11.5839 12.4341 11.4073 12.8702 11.1808C13.0303 11.1 13.1897 11.0719 13.3674 11.1076C13.5493 11.1683 13.6792 11.268 13.7947 11.4219C13.8546 11.6082 13.8661 11.8166 13.8093 12.0059C13.6837 12.2484 13.4346 12.3833 13.197 12.4941C13.1688 12.5074 13.1406 12.5206 13.1115 12.5342C12.3458 12.882 11.4956 13.1239 10.6501 13.1325C10.6249 13.1328 10.5997 13.1331 10.5737 13.1334C10.0008 13.1389 9.45363 13.1272 8.89233 13C8.86669 12.9945 8.84105 12.989 8.81464 12.9833C7.89646 12.7819 6.97946 12.3728 6.26538 11.7548C6.20797 11.7137 6.20797 11.7137 6.14478 11.7186C6.04894 11.7649 5.98901 11.8334 5.91577 11.9102C5.82245 12.0075 5.72982 12.1002 5.62698 12.1874C5.45557 12.3367 5.29662 12.4983 5.13652 12.6595C5.10201 12.6941 5.06748 12.7288 5.03295 12.7634C4.95906 12.8375 4.88522 12.9116 4.81141 12.9858C4.69461 13.1032 4.57767 13.2204 4.46071 13.3376C4.12829 13.6708 3.79606 14.0041 3.46396 14.3376C3.2802 14.5222 3.09632 14.7066 2.91233 14.8909C2.79611 15.0073 2.68004 15.1239 2.56407 15.2405C2.49188 15.3131 2.41956 15.3855 2.3472 15.4579C2.31376 15.4914 2.28038 15.525 2.24705 15.5586C2.20143 15.6046 2.15562 15.6504 2.10976 15.6961C2.07144 15.7346 2.07144 15.7346 2.03236 15.7738C1.82314 15.9625 1.66598 16.0097 1.39062 16.0067C1.23144 15.9951 1.14541 15.9358 1.0271 15.834C0.871733 15.6534 0.85045 15.5139 0.848633 15.2813C0.872032 15.1051 0.96321 14.9799 1.08167 14.8519C1.10656 14.825 1.13145 14.7981 1.15709 14.7704C1.28635 14.6347 1.41772 14.5014 1.55054 14.3691C1.57698 14.3426 1.60343 14.316 1.63068 14.2886C1.6568 14.2626 1.68292 14.2365 1.70984 14.2096C1.73292 14.1866 1.75601 14.1635 1.77979 14.1398C1.8426 14.0801 1.90604 14.0237 1.97182 13.9674C2.12817 13.8309 2.27417 13.6848 2.42059 13.5378C2.4508 13.5076 2.481 13.4774 2.51122 13.4472C2.5925 13.3659 2.67368 13.2846 2.75484 13.2032C2.83995 13.1179 2.92515 13.0326 3.01033 12.9474C3.17131 12.7864 3.33221 12.6252 3.49307 12.464C3.67636 12.2804 3.85973 12.0968 4.04311 11.9133C4.42003 11.5361 4.79685 11.1587 5.17358 10.7813C5.12072 10.6394 5.04479 10.531 4.95288 10.4121C4.78677 10.1911 4.6477 9.96236 4.51875 9.71802C4.48738 9.65871 4.45521 9.59987 4.42297 9.54102C4.10865 8.9542 3.90808 8.31143 3.79858 7.65626C3.79283 7.62186 3.78708 7.58746 3.78116 7.55202C3.73247 7.22881 3.7236 6.91033 3.72437 6.58399C3.72438 6.55666 3.7244 6.52932 3.72442 6.50116C3.72693 5.61859 3.89489 4.78397 4.23608 3.96876C4.24468 3.94818 4.25327 3.9276 4.26213 3.90639C4.932 2.3343 6.27105 1.09581 7.83554 0.441565C8.49889 0.175535 9.22908 -0.00015776 9.94592 -0.00744004Z" fill="#0B0F12"/>
</g>
<defs>
<clipPath id="clip0_30_671">
<rect width="16" height="16" fill="white" transform="translate(0.861328)"/>
</clipPath>
</defs>
</svg>
