<svg width="15" height="15" viewBox="0 0 15 15" fill="none" xmlns="http://www.w3.org/2000/svg">
<path d="M2 1.875C2 0.84082 2.82214 0 3.83333 0H8.41667V3.75C8.41667 4.26855 8.8263 4.6875 9.33333 4.6875H13V13.125C13 14.1592 12.1779 15 11.1667 15H7.5V11.25C7.5 10.2158 6.67786 9.375 5.66667 9.375H2V1.875ZM13 3.75H9.33333V0L13 3.75ZM2.91667 10.3125H5.66667C6.1737 10.3125 6.58333 10.7314 6.58333 11.25V14.0625C6.58333 14.5811 6.1737 15 5.66667 15H2.91667C2.40964 15 2 14.5811 2 14.0625V11.25C2 10.7314 2.40964 10.3125 2.91667 10.3125Z" fill="#003159"/>
</svg>
