<svg width="15" height="15" viewBox="0 0 15 15" fill="none" xmlns="http://www.w3.org/2000/svg">
<g clip-path="url(#clip0_41_1552)">
<path d="M14.9948 7.48535C14.9948 8.01269 14.6042 8.42578 14.1615 8.42578H13.3281L13.3464 13.1191C13.3464 13.1982 13.3412 13.2773 13.3334 13.3564V13.8311C13.3334 14.4785 12.8672 15.0029 12.2917 15.0029H11.875C11.8464 15.0029 11.8177 15.0029 11.7891 15C11.7526 15.0029 11.7162 15.0029 11.6797 15.0029L10.8334 15H10.2084C9.63283 15 9.16669 14.4756 9.16669 13.8281V13.125V11.25C9.16669 10.7314 8.79429 10.3125 8.33335 10.3125H6.66669C6.20575 10.3125 5.83335 10.7314 5.83335 11.25V13.125V13.8281C5.83335 14.4756 5.36721 15 4.79169 15H4.16669H3.33596C3.2969 15 3.25783 14.9971 3.21877 14.9941C3.18752 14.9971 3.15627 15 3.12502 15H2.70835C2.13283 15 1.66669 14.4756 1.66669 13.8281V10.5469C1.66669 10.5205 1.66669 10.4912 1.66929 10.4648V8.42285H0.835958C0.367208 8.42285 0.00262451 8.01269 0.00262451 7.48242C0.00262451 7.21875 0.0807495 6.98437 0.263041 6.7793L6.93752 0.234375C7.11981 0.0292969 7.32815 0 7.51044 0C7.69273 0 7.90106 0.0585937 8.05731 0.205078L14.7084 6.78223C14.9167 6.9873 15.0209 7.22168 14.9948 7.48535Z" fill="#003159"/>
</g>
<defs>
<clipPath id="clip0_41_1552">
<rect width="15" height="15" fill="white"/>
</clipPath>
</defs>
</svg>
