<svg width="15" height="15" viewBox="0 0 15 15" fill="none" xmlns="http://www.w3.org/2000/svg">
<path d="M3 1.5C2.17266 1.5 1.5 2.17266 1.5 3V8.25H0.45C0.201563 8.25 0 8.45156 0 8.7C0 9.69375 0.80625 10.5 1.8 10.5H7.5V8.25H3V3H10.5V3.75H12V3C12 2.17266 11.3273 1.5 10.5 1.5H3ZM12 4.5H9.375C8.75391 4.5 8.25 5.00391 8.25 5.625V12.375C8.25 12.9961 8.75391 13.5 9.375 13.5H13.875C14.4961 13.5 15 12.9961 15 12.375V7.5H12.75C12.3352 7.5 12 7.16484 12 6.75V4.5ZM12.75 4.5V6.75H15L12.75 4.5Z" fill="white"/>
</svg>
