<svg width="15" height="15" viewBox="0 0 15 15" fill="none" xmlns="http://www.w3.org/2000/svg">
<path d="M1.50001 3C1.50001 2.60218 1.65804 2.22064 1.93934 1.93934C2.22065 1.65804 2.60218 1.5 3.00001 1.5C3.39783 1.5 3.77936 1.65804 4.06067 1.93934C4.34197 2.22064 4.50001 2.60218 4.50001 3C4.50001 3.39782 4.34197 3.77936 4.06067 4.06066C3.77936 4.34196 3.39783 4.5 3.00001 4.5C2.60218 4.5 2.22065 4.34196 1.93934 4.06066C1.65804 3.77936 1.50001 3.39782 1.50001 3ZM0.607036 6.97031C0.686724 5.99766 1.50001 5.25 2.47501 5.25H3.52501C4.15782 5.25 4.72032 5.56406 5.06016 6.04922C4.99688 6.09375 4.93829 6.14297 4.88438 6.19687L3.38438 7.69687C2.8711 8.21016 2.8711 9.03984 3.38438 9.55313L4.50001 10.6688V12.375C4.50001 12.9961 3.9961 13.5 3.37501 13.5H2.62501C2.00391 13.5 1.50001 12.9961 1.50001 12.375V9.66328C0.878911 9.44062 0.452349 8.82422 0.510943 8.12578L0.607036 6.97031ZM10.5 3C10.5 2.60218 10.658 2.22064 10.9393 1.93934C11.2206 1.65804 11.6022 1.5 12 1.5C12.3978 1.5 12.7794 1.65804 13.0607 1.93934C13.342 2.22064 13.5 2.60218 13.5 3C13.5 3.39782 13.342 3.77936 13.0607 4.06066C12.7794 4.34196 12.3978 4.5 12 4.5C11.6022 4.5 11.2206 4.34196 10.9393 4.06066C10.658 3.77936 10.5 3.39782 10.5 3ZM10.1156 6.19687C10.0617 6.14297 10.0008 6.09375 9.93985 6.04922C10.2797 5.56406 10.8445 5.25 11.475 5.25H12.525C13.5 5.25 14.3133 5.99766 14.393 6.97031L14.4891 8.12578C14.5477 8.82422 14.1211 9.44062 13.5 9.66328V12.375C13.5 12.9961 12.9961 13.5 12.375 13.5H11.625C11.0039 13.5 10.5 12.9961 10.5 12.375V10.6688L11.6156 9.55313C12.1289 9.03984 12.1289 8.21016 11.6156 7.69687L10.1156 6.19687ZM6.37501 7.125V7.875H8.62501V7.125C8.62501 6.89766 8.76094 6.69141 8.97188 6.60469C9.18282 6.51797 9.42422 6.56484 9.58594 6.72656L11.0859 8.22656C11.3063 8.44687 11.3063 8.80312 11.0859 9.02109L9.58594 10.5211C9.42422 10.6828 9.18282 10.7297 8.97188 10.643C8.76094 10.5563 8.62501 10.35 8.62501 10.1227V9.37266H6.37501V10.1227C6.37501 10.35 6.23907 10.5563 6.02813 10.643C5.81719 10.7297 5.57579 10.6828 5.41407 10.5211L3.91407 9.02109C3.69376 8.80078 3.69376 8.44453 3.91407 8.22656L5.41407 6.72656C5.57579 6.56484 5.81719 6.51797 6.02813 6.60469C6.23907 6.69141 6.37501 6.89766 6.37501 7.125Z" fill="white"/>
</svg>
